static_grf.mot
version=1
nRows=30
nColumns 19
inDegrees=yes
endheader
time	1_ground_force_vx	1_ground_force_vy	1_ground_force_vz	1_ground_force_px	1_ground_force_py	1_ground_force_pz	1_ground_torque_x	1_ground_torque_y	1_ground_torque_z	2_ground_force_vx	2_ground_force_vy	2_ground_force_vz	2_ground_force_px	2_ground_force_py	2_ground_force_pz	2_ground_torque_x	2_ground_torque_y	2_ground_torque_z
            0.005000	           -3.873405	          420.162414	          -31.802169	           -0.285181	            0.006012	           -0.358413	           -0.024386	            2.645188	           -0.200215	            1.957014	          434.149427	           25.387327	           -0.300281	            0.005424	           -0.704594	           -0.001471	           -0.326350	           -0.019084
            0.005500	           -3.735516	          419.440985	          -31.713891	           -0.285173	            0.006013	           -0.358535	           -0.023306	            2.616958	           -0.197868	            2.048158	          434.885491	           25.624556	           -0.299998	            0.005426	           -0.704856	           -0.001321	           -0.280486	           -0.016527
            0.006000	           -3.644223	          420.342755	          -31.801965	           -0.284954	            0.006013	           -0.358590	           -0.023067	            2.660665	           -0.201299	            2.234269	          435.254175	           25.719647	           -0.300106	            0.005425	           -0.704707	           -0.001758	           -0.342496	           -0.020238
            0.006500	           -3.643944	          419.441199	          -31.759970	           -0.285108	            0.006014	           -0.358763	           -0.023214	            2.672085	           -0.202329	            2.236887	          434.517886	           25.623162	           -0.300220	            0.005424	           -0.704575	           -0.001796	           -0.348832	           -0.020570
            0.007000	           -3.644513	          419.442182	          -31.989254	           -0.285008	            0.006014	           -0.358698	           -0.023535	            2.708555	           -0.206571	            2.141173	          435.070138	           25.578245	           -0.300007	            0.005425	           -0.704523	           -0.001617	           -0.328617	           -0.019320
            0.007500	           -3.827594	          420.342719	          -31.801510	           -0.284719	            0.006013	           -0.358592	           -0.023561	            2.587481	           -0.195759	            2.235619	          434.885666	           25.765261	           -0.300119	            0.005426	           -0.704900	           -0.001823	           -0.354698	           -0.021014
            0.008000	           -3.643830	          419.441003	          -31.714118	           -0.284882	            0.006014	           -0.358804	           -0.023366	            2.689700	           -0.203369	            2.141817	          434.886164	           25.530660	           -0.300085	            0.005426	           -0.704856	           -0.001373	           -0.278829	           -0.016369
            0.008500	           -3.736007	          420.883503	          -31.799419	           -0.285028	            0.006013	           -0.358458	           -0.023806	            2.681840	           -0.202624	            2.192695	          433.781154	           25.620554	           -0.300295	            0.005423	           -0.704355	           -0.001650	           -0.326506	           -0.019285
            0.009000	           -3.827088	          419.440770	          -31.667803	           -0.284957	            0.006013	           -0.358532	           -0.023957	            2.625599	           -0.198233	            2.050131	          434.333236	           25.575657	           -0.300126	            0.005425	           -0.704649	           -0.001372	           -0.290587	           -0.017111
            0.009500	           -3.736070	          419.982599	          -31.894995	           -0.285148	            0.006013	           -0.358644	           -0.023353	            2.625224	           -0.199369	            2.240087	          433.598126	           25.338308	           -0.300546	            0.005422	           -0.704256	           -0.001505	           -0.291403	           -0.017029
            0.010000	           -3.735858	          419.441575	          -31.851455	           -0.285212	            0.006014	           -0.358863	           -0.023538	            2.642695	           -0.200680	            2.141837	          434.885997	           25.577588	           -0.300124	            0.005426	           -0.704856	           -0.001533	           -0.311303	           -0.018309
            0.010500	           -3.735957	          419.982402	          -31.849135	           -0.285012	            0.006014	           -0.358729	           -0.023453	            2.636462	           -0.199935	            2.563404	          434.888189	           25.389697	           -0.300075	            0.005425	           -0.704469	           -0.002138	           -0.362724	           -0.021177
            0.011000	           -3.644106	          419.081061	          -31.853228	           -0.285103	            0.006014	           -0.358728	           -0.023356	            2.686049	           -0.204159	            2.236181	          434.702362	           25.529963	           -0.300280	            0.005425	           -0.704802	           -0.001716	           -0.333581	           -0.019591
            0.011500	           -3.781734	          419.621862	          -31.850568	           -0.285016	            0.006015	           -0.358909	           -0.023796	            2.640402	           -0.200415	            2.279749	          435.622961	           25.627085	           -0.300090	            0.005426	           -0.704816	           -0.001885	           -0.360263	           -0.021194
            0.012000	           -3.690000	          419.982214	          -31.803397	           -0.285096	            0.006012	           -0.358411	           -0.023220	            2.642809	           -0.200128	            2.095590	          434.702189	           25.436167	           -0.299893	            0.005426	           -0.704758	           -0.001492	           -0.309462	           -0.018108
            0.012500	           -3.552273	          418.900647	          -31.808376	           -0.285479	            0.006014	           -0.358720	           -0.022632	            2.668866	           -0.202655	            2.188687	          434.886166	           25.577568	           -0.300166	            0.005425	           -0.704684	           -0.001653	           -0.328421	           -0.019316
            0.013000	           -3.781734	          419.621862	          -31.850568	           -0.285099	            0.006012	           -0.358327	           -0.024007	            2.663868	           -0.202196	            2.002617	          434.517208	           25.576334	           -0.300270	            0.005424	           -0.704401	           -0.001375	           -0.298332	           -0.017560
            0.013500	           -3.552225	          419.260982	          -31.760971	           -0.285218	            0.006015	           -0.358940	           -0.022354	            2.638431	           -0.199873	            2.236805	          434.518556	           25.435450	           -0.300269	            0.005424	           -0.704445	           -0.001593	           -0.309382	           -0.018110
            0.014000	           -3.781392	          419.621272	          -31.713004	           -0.285063	            0.006014	           -0.358805	           -0.023748	            2.635263	           -0.199161	            2.005152	          433.781649	           25.292137	           -0.300345	            0.005424	           -0.704484	           -0.001297	           -0.280659	           -0.016364
            0.014500	           -3.644498	          419.982813	          -31.941075	           -0.285211	            0.006012	           -0.358291	           -0.023475	            2.705240	           -0.205742	            2.005961	          433.596276	           25.619977	           -0.300370	            0.005423	           -0.704430	           -0.001406	           -0.303829	           -0.017952
            0.015000	           -3.644693	          419.802910	          -32.033560	           -0.285328	            0.006014	           -0.358701	           -0.023229	            2.675513	           -0.204158	            2.376669	          434.703371	           25.389119	           -0.300110	            0.005425	           -0.704759	           -0.001694	           -0.309872	           -0.018098
            0.015500	           -3.919604	          419.622425	          -31.987798	           -0.284945	            0.006014	           -0.358879	           -0.024316	            2.603202	           -0.198442	            2.329114	          434.887678	           25.295940	           -0.300207	            0.005424	           -0.704469	           -0.001865	           -0.348147	           -0.020251
            0.016000	           -3.598445	          420.703295	          -31.800533	           -0.285039	            0.006012	           -0.358277	           -0.022753	            2.660130	           -0.201076	            2.098146	          433.966463	           25.198898	           -0.300314	            0.005424	           -0.704669	           -0.001423	           -0.294424	           -0.017096
            0.016500	           -3.781359	          419.440976	          -31.713777	           -0.285356	            0.006014	           -0.358849	           -0.023678	            2.626424	           -0.198583	            2.189914	          434.518721	           25.341614	           -0.300139	            0.005425	           -0.704531	           -0.001575	           -0.312425	           -0.018221
            0.017000	           -3.781213	          419.260544	          -31.668690	           -0.285246	            0.006014	           -0.358889	           -0.023631	            2.620190	           -0.197915	            2.375402	          435.071151	           25.531218	           -0.300307	            0.005424	           -0.704567	           -0.001929	           -0.353252	           -0.020730
            0.017500	           -3.873078	          419.621254	          -31.712776	           -0.285165	            0.006014	           -0.358761	           -0.024183	            2.620065	           -0.198011	            2.376046	          434.887177	           25.483632	           -0.300124	            0.005425	           -0.704684	           -0.001731	           -0.316860	           -0.018567
            0.018000	           -3.872898	          419.260526	          -31.668462	           -0.285256	            0.006014	           -0.358711	           -0.024125	            2.611682	           -0.197271	            2.235455	          434.887005	           25.389836	           -0.299858	            0.005426	           -0.704642	           -0.001860	           -0.361811	           -0.021123
            0.018500	           -3.735420	          420.161654	          -31.619087	           -0.285271	            0.006013	           -0.358660	           -0.023002	            2.587280	           -0.194705	            2.236784	          434.518723	           25.388522	           -0.300055	            0.005425	           -0.704574	           -0.001499	           -0.291136	           -0.017011
            0.019000	           -3.735972	          419.441771	          -31.897314	           -0.285078	            0.006013	           -0.358644	           -0.023444	            2.632126	           -0.200165	            2.235558	          434.886168	           25.624476	           -0.300210	            0.005425	           -0.704684	           -0.001644	           -0.319814	           -0.018844
            0.019500	           -3.689676	          420.702491	          -31.616882	           -0.285100	            0.006013	           -0.358482	           -0.023175	            2.642436	           -0.198586	            2.238737	          433.966636	           25.292695	           -0.300268	            0.005424	           -0.704540	           -0.001642	           -0.318319	           -0.018552
